HIERARCHY
ROOT Hips
{
	OFFSET -0.001795 -0.223333 0.028219
	CHANNELS 6 Xposition Yposition Zposition Zrotation Yrotation Xrotation 
	JOINT LeftUpLeg
	{
		OFFSET 0.069520 -0.091406 -0.006815
		CHANNELS 3 Zrotation Yrotation Xrotation
		JOINT LeftLeg
		{
			OFFSET 0.034277 -0.375199 -0.004496
			CHANNELS 3 Zrotation Yrotation Xrotation
			JOINT LeftFoot
			{
				OFFSET -0.013596 -0.397961 -0.043693
				CHANNELS 3 Zrotation Yrotation Xrotation
				JOINT LeftToe
				{
					OFFSET 0.026358 -0.055791 0.119288
					CHANNELS 3 Zrotation Yrotation Xrotation
					End Site
					{
						OFFSET 0.000000 0.000000 0.000000
					}
				}
			}
		}
	}
	JOINT RightUpLeg
	{
		OFFSET -0.067670 -0.090522 -0.004320
		CHANNELS 3 Zrotation Yrotation Xrotation
		JOINT RightLeg
		{
			OFFSET -0.038290 -0.382569 -0.008850
			CHANNELS 3 Zrotation Yrotation Xrotation
			JOINT RightFoot
			{
				OFFSET 0.015774 -0.398415 -0.042312
				CHANNELS 3 Zrotation Yrotation Xrotation
				JOINT RightToe
				{
					OFFSET -0.025372 -0.048144 0.123348
					CHANNELS 3 Zrotation Yrotation Xrotation
					End Site
					{
						OFFSET 0.000000 0.000000 0.000000
					}
				}
			}
		}
	}
	JOINT Spine
	{
		OFFSET -0.002533 0.108963 -0.026696
		CHANNELS 3 Zrotation Yrotation Xrotation
		JOINT Spine1
		{
			OFFSET 0.005487 0.135180 0.001092
			CHANNELS 3 Zrotation Yrotation Xrotation
			JOINT Spine2
			{
				OFFSET 0.001457 0.052922 0.025425
				CHANNELS 3 Zrotation Yrotation Xrotation
				JOINT Neck
				{
					OFFSET -0.002778 0.213870 -0.042857
					CHANNELS 3 Zrotation Yrotation Xrotation
					JOINT Head
					{
						OFFSET 0.005152 0.064970 0.051349
						CHANNELS 3 Zrotation Yrotation Xrotation
						End Site
						{
							OFFSET 0.000000 0.000000 0.000000
						}
					}
				}
				JOINT LeftShoulder
				{
					OFFSET 0.078845 0.121749 -0.034090
					CHANNELS 3 Zrotation Yrotation Xrotation
					JOINT LeftArm
					{
						OFFSET 0.090977 0.030469 -0.008868
						CHANNELS 3 Zrotation Yrotation Xrotation
						JOINT LeftForeArm
						{
							OFFSET 0.259612 -0.012772 -0.027456
							CHANNELS 3 Zrotation Yrotation Xrotation
							JOINT LeftHand
							{
								OFFSET 0.249234 0.008986 -0.001171
								CHANNELS 3 Zrotation Yrotation Xrotation
								End Site
								{
									OFFSET 0.000000 0.000000 0.000000
								}
							}
						}
					}
				}
				JOINT RightShoulder
				{
					OFFSET -0.081759 0.118833 -0.038615
					CHANNELS 3 Zrotation Yrotation Xrotation
					JOINT RightArm
					{
						OFFSET -0.096012 0.032551 -0.009143
						CHANNELS 3 Zrotation Yrotation Xrotation
						JOINT RightForeArm
						{
							OFFSET -0.253742 -0.013329 -0.021401
							CHANNELS 3 Zrotation Yrotation Xrotation
							JOINT RightHand
							{
								OFFSET -0.255298 0.007772 -0.005559
								CHANNELS 3 Zrotation Yrotation Xrotation
								End Site
								{
									OFFSET 0.000000 0.000000 0.000000
								}
							}
						}
					}
				}
			}
		}
	}
}
MOTION
Frames: 7
Frame Time: 0.050000
-0.011208 0.920441 0.015845 2.185167 -12.353912 4.473579 3.980778 -0.287648 -5.060438 0.791085 -0.105599 0.148987 -7.968920 -17.222566 -0.110060 0.000000 0.000000 0.000000 -9.573601 0.867325 -10.989150 5.072993 -0.290561 9.409756 0.668707 3.566297 -2.309271 0.000000 0.000000 0.000000 3.229704 -0.163941 1.298815 1.622968 -0.706985 5.739838 6.650747 2.765132 0.517673 9.262406 -4.977295 -14.037807 0.000000 0.000000 0.000000 -25.174697 -2.981776 0.779498 -43.929969 5.380604 -6.996590 -30.277129 -46.935776 16.018835 0.000000 0.000000 0.000000 26.312479 15.249882 4.882524 42.139763 18.237944 3.048704 -3.077779 48.791188 -0.479601 0.000000 0.000000 0.000000 
-0.010892 0.921021 0.013036 2.143880 -12.171395 4.787219 3.902332 -0.329765 -5.722051 0.934572 -0.131933 0.378625 -8.170882 -17.639548 -0.092017 0.000000 0.000000 0.000000 -9.238497 0.890529 -11.415806 5.116035 -0.303631 9.223847 0.308079 2.450781 -2.160776 0.000000 0.000000 0.000000 3.446748 -0.194293 1.587719 1.558752 -0.676571 5.706563 6.750981 2.927395 0.930769 9.316754 -4.974881 -14.273906 0.000000 0.000000 0.000000 -24.810699 -3.496752 1.048153 -44.347741 4.653197 -6.827507 -30.528298 -47.706794 16.424718 0.000000 0.000000 0.000000 26.909655 15.782385 5.336911 41.503702 18.777860 3.125550 -4.820216 46.606528 -1.089825 0.000000 0.000000 0.000000 
-0.010086 0.921513 0.009944 2.219032 -11.995308 5.027360 3.771983 -0.371962 -6.339779 0.996721 -0.155519 0.830226 -8.386297 -18.295776 -0.371065 0.000000 0.000000 0.000000 -9.234889 0.910532 -11.919961 5.194650 -0.319918 9.162264 0.218839 1.942331 -1.834372 0.000000 0.000000 0.000000 3.500757 -0.224848 1.962662 1.577195 -0.692431 5.439807 7.019478 3.368365 1.449028 9.457785 -4.934475 -14.978662 0.000000 0.000000 0.000000 -24.672092 -3.927258 1.186266 -44.600399 3.817400 -6.582414 -31.040857 -48.051179 16.758511 0.000000 0.000000 0.000000 27.371103 16.450634 5.998749 40.285269 20.029771 3.322660 -6.486688 43.367846 -1.509574 0.000000 0.000000 0.000000 
-0.008857 0.922351 0.006530 2.372657 -11.672584 5.298295 3.490259 -0.423523 -6.915850 0.920000 -0.144191 0.811876 -8.668234 -18.625978 0.026084 0.000000 0.000000 0.000000 -9.029866 0.944935 -12.701765 4.775514 -0.259043 9.347255 0.132763 1.516898 -1.594913 0.000000 0.000000 0.000000 3.626064 -0.253694 2.261102 1.630431 -0.725780 5.524292 7.064420 3.985086 1.752698 9.660863 -4.926275 -15.471888 0.000000 0.000000 0.000000 -24.339755 -4.455035 1.264789 -44.660167 3.458028 -6.414605 -32.647322 -48.899496 17.766118 0.000000 0.000000 0.000000 27.601308 17.125640 6.807412 38.907505 21.455582 3.493306 -8.553401 41.239621 -2.035095 0.000000 0.000000 0.000000 
-0.007207 0.922613 0.002728 2.457354 -11.586579 5.588521 3.316307 -0.469902 -7.539071 0.766110 -0.126668 0.915264 -8.843365 -18.925453 0.126046 0.000000 0.000000 0.000000 -9.093792 0.970644 -13.279092 4.907079 -0.279474 9.424586 0.088441 1.201369 -1.340658 0.000000 0.000000 0.000000 3.740203 -0.285351 2.593859 1.571905 -0.697577 5.310057 7.331112 4.676439 2.182573 9.756462 -4.829896 -16.149985 0.000000 0.000000 0.000000 -23.978392 -4.898286 1.330556 -44.903213 3.220004 -6.331083 -34.450234 -49.556196 18.841858 0.000000 0.000000 0.000000 27.599310 17.937908 7.667029 37.198753 23.414344 3.744697 -10.037430 39.522448 -2.339545 0.000000 0.000000 0.000000 
-0.005407 0.922975 -0.001259 2.480305 -11.606144 5.926411 3.416578 -0.490657 -8.044108 0.634635 -0.091707 0.381494 -9.293489 -19.429164 0.730426 0.000000 0.000000 0.000000 -9.059501 1.004565 -13.860902 4.735049 -0.251845 9.451849 0.174606 1.171085 -0.996345 0.000000 0.000000 0.000000 3.785601 -0.306215 2.804898 1.498595 -0.655142 5.547749 7.607638 5.436890 2.176817 9.946607 -4.836946 -16.391444 0.000000 0.000000 0.000000 -23.575570 -5.125825 1.240155 -45.081184 3.583524 -6.405968 -36.921995 -50.274429 20.294127 0.000000 0.000000 0.000000 27.309306 18.778282 8.520441 35.440631 25.275738 3.933697 -12.250536 39.553196 -3.018386 0.000000 0.000000 0.000000 
-0.003478 0.923620 -0.004943 2.514844 -11.601112 6.349771 3.255232 -0.527750 -8.490824 0.525219 -0.059418 -0.171251 -9.607733 -19.646202 1.329721 0.000000 0.000000 0.000000 -9.169117 1.033468 -14.421296 4.670688 -0.245314 9.296993 0.313346 1.218723 -0.571978 0.000000 0.000000 0.000000 3.868363 -0.315211 2.796090 1.471301 -0.636467 5.692813 7.787306 5.830260 2.138397 9.953516 -4.738566 -16.769188 0.000000 0.000000 0.000000 -23.484735 -4.870117 0.966614 -45.347085 4.190491 -6.611718 -39.719865 -50.377119 21.733910 0.000000 0.000000 0.000000 26.990368 19.210833 8.943908 33.650038 27.052298 4.082820 -14.301274 40.544197 -3.787424 0.000000 0.000000 0.000000 
